<svg width="278" height="315" viewBox="0 0 278 315" fill="none" xmlns="http://www.w3.org/2000/svg">
<path d="M166.509 0.987284C189.687 -1.4507 215.201 -0.151474 233.175 13.876C249.96 26.9821 256.499 48.2304 261.178 68.3244C268.875 101.336 273.956 134.9 276.373 168.706C278.04 192.128 278.243 216.545 268.09 237.974C259.152 256.836 242.918 271.738 225.718 284.513C206.108 299.079 183.683 311.88 158.828 313.898C128.644 316.347 99.4112 302.469 75.7349 284.617C38.3431 256.401 9.98243 216.291 2.11456 171.672C-3.89929 137.551 2.92991 101.028 22.4048 71.5905C40.5503 44.1567 69.451 28.5971 100.746 16.7229C121.893 8.6689 143.998 3.37967 166.509 0.987284Z" fill="#D9D9D9"/>
</svg>
